<svg width="16" height="16" viewBox="0 0 16 16" fill="none" xmlns="http://www.w3.org/2000/svg">
    <path d="M5.90051 14.6666C6.27651 15.452 7.07251 16 7.99983 16C8.92714 16 9.72317 15.452 10.0992 14.6666H5.90051Z" fill="white"/>
    <path d="M14.6191 13.4953L13.4745 11.5873C12.9458 10.7067 12.6665 9.698 12.6665 8.67134V7C12.6665 4.89 11.2585 3.10534 9.33314 2.53V1.33334C9.33314 0.598 8.73514 0 7.9998 0C7.26446 0 6.66646 0.598 6.66646 1.33334V2.53C4.74114 3.10534 3.33314 4.89 3.33314 7V8.67134C3.33314 9.698 3.0538 10.706 2.5258 11.5867L1.38114 13.4947C1.31914 13.598 1.3178 13.726 1.37714 13.8307C1.43649 13.9353 1.54649 14 1.66649 14H14.3331C14.4531 14 14.5638 13.9354 14.6231 13.8314C14.6825 13.7273 14.6805 13.598 14.6191 13.4953Z" fill="white"/>
</svg>