<svg width="16" height="16" viewBox="0 0 16 16" fill="none" xmlns="http://www.w3.org/2000/svg">
    <path d="M14.7154 4.11839C14.6962 3.69746 14.6962 3.29567 14.6962 2.89387C14.6962 2.56861 14.4475 2.31988 14.1223 2.31988C11.7306 2.31988 9.91298 1.63109 8.40147 0.157848C8.17188 -0.0526159 7.82748 -0.0526159 7.59789 0.157848C6.08638 1.63109 4.26874 2.31988 1.87711 2.31988C1.55185 2.31988 1.30312 2.56861 1.30312 2.89387C1.30312 3.29567 1.30312 3.69746 1.28399 4.11839C1.20745 8.13632 1.09265 13.6466 7.80835 15.9617L7.99968 16L8.19101 15.9617C14.8876 13.6466 14.7919 8.15545 14.7154 4.11839Z" fill="white"/>
</svg>